<svg xmlns="http://www.w3.org/2000/svg" viewBox="0 0 453.54 198.43"><defs><style>.cls-1{fill:#f4f4f4;stroke-width:0.1px;}.cls-1,.cls-2{stroke:#0773b6;}.cls-1,.cls-13,.cls-18,.cls-19,.cls-2,.cls-7,.cls-9{stroke-miterlimit:10;}.cls-13,.cls-18,.cls-19,.cls-2,.cls-7,.cls-9{fill:none;}.cls-14,.cls-3{fill:#0773b6;}.cls-4{font-size:5.49px;}.cls-10,.cls-11,.cls-12,.cls-15,.cls-17,.cls-20,.cls-4,.cls-8{fill:#1d1d1b;}.cls-11,.cls-12,.cls-15,.cls-17,.cls-20,.cls-4,.cls-8{font-family:ArialMT, Arial;}.cls-5{opacity:0.5;}.cls-6{fill:#0a74b7;}.cls-13,.cls-18,.cls-19,.cls-7{stroke:#b0afaf;}.cls-7{stroke-dasharray:2 2;}.cls-8{font-size:7.61px;}.cls-9{stroke:#1d1d1b;stroke-width:0.25px;}.cls-11{font-size:6.07px;}.cls-12,.cls-17{opacity:0.3;}.cls-12{font-size:7.3px;}.cls-13{stroke-dasharray:2 2;}.cls-14{font-size:6.52px;font-family:Arial-ItalicMT, Arial;}.cls-14,.cls-16{font-style:italic;}.cls-15,.cls-17{font-size:5.33px;}.cls-16{font-size:10.28px;font-family:Arial-BoldItalicMT, Arial;font-weight:700;}.cls-18{stroke-dasharray:2 2;}.cls-19{stroke-dasharray:2 2;}.cls-20{font-size:8.52px;}</style></defs><g id="Arrows"><rect class="cls-1" x="17.07" y="85.13" width="163.61" height="54.13" rx="7.3"/><line class="cls-2" x1="194.67" y1="83.84" x2="194.67" y2="158.25"/><polygon class="cls-3" points="189.69 156.79 194.67 165.43 199.66 156.79 189.69 156.79"/><text class="cls-4" transform="translate(201.61 104.44) scale(0.99 1)">Layer = 1</text><g class="cls-5"><rect class="cls-6" x="17.62" y="158.76" width="163.36" height="7.93" rx="3.37"/><rect class="cls-7" x="17.62" y="158.76" width="163.36" height="7.93" rx="3.37"/></g><text class="cls-8" transform="translate(63.78 165.75) scale(0.92 1)">Clustered Sequences</text><line class="cls-9" x1="98.17" y1="138.61" x2="98.17" y2="157.5"/><polygon class="cls-10" points="96.92 157.13 98.17 159.29 99.42 157.13 96.92 157.13"/><line class="cls-9" x1="98.04" y1="67.22" x2="98.04" y2="83.48"/><polygon class="cls-10" points="96.8 83.12 98.04 85.28 99.29 83.12 96.8 83.12"/><text class="cls-11" transform="translate(102.06 80.48) scale(0.96 1)">no splitting done</text><text class="cls-12" transform="translate(87.61 112.85) scale(1.05 1)">chunk_0</text><text class="cls-11" transform="translate(104.41 149.05) scale(0.96 1)">cluster</text><g class="cls-5"><rect class="cls-13" x="232.97" y="29.54" width="165.11" height="38.04" rx="8.42"/></g><rect class="cls-1" x="232.97" y="75.18" width="33.02" height="30.43" rx="9.03"/><rect class="cls-1" x="276.99" y="75.18" width="33.02" height="30.43" rx="8.89"/><rect class="cls-1" x="321.02" y="75.18" width="33.02" height="30.43" rx="8.31"/><rect class="cls-1" x="365.05" y="75.18" width="33.02" height="30.43" rx="8.03"/><rect class="cls-1" x="232.97" y="113.22" width="77.16" height="15.22" rx="4.97"/><rect class="cls-1" x="320.56" y="113.67" width="77.16" height="15.22" rx="5.4"/><rect class="cls-1" x="233.55" y="138.27" width="165.36" height="9.85" rx="3.13"/><line class="cls-2" x1="408.67" y1="78.2" x2="408.67" y2="157.27"/><polygon class="cls-3" points="403.69 155.81 408.67 164.45 413.66 155.81 403.69 155.81"/><text class="cls-14" transform="translate(292.92 50.83) scale(1.09 1)">Original Data</text><text class="cls-4" transform="translate(416.82 90.07) scale(0.99 1)">Layer = 1</text><text class="cls-4" transform="translate(416.82 120.56) scale(0.99 1)">Layer = 2</text><text class="cls-4" transform="translate(416.82 143.64) scale(0.99 1)">Layer = 3</text><polyline class="cls-9" points="248.17 105.18 248.17 109.56 295.26 109.56 295.26 105.18"/><polyline class="cls-9" points="336.15 105.52 336.15 109.22 382.88 109.22 382.88 105.52"/><line class="cls-9" x1="270.44" y1="109.89" x2="270.44" y2="111.13"/><polygon class="cls-10" points="269.19 110.76 270.44 112.92 271.69 110.76 269.19 110.76"/><line class="cls-9" x1="359.51" y1="109.22" x2="359.51" y2="111.8"/><polygon class="cls-10" points="358.27 111.44 359.51 113.59 360.76 111.44 358.27 111.44"/><text class="cls-15" transform="translate(362 113.29) scale(1.09 1)">pooling</text><text class="cls-15" transform="translate(383.74 108.54) scale(1.09 1)">cluster</text><text class="cls-15" transform="translate(336.75 108.54) scale(1.09 1)">cluster</text><text class="cls-15" transform="translate(296.24 108.54) scale(1.09 1)">cluster</text><text class="cls-15" transform="translate(249.24 108.31) scale(1.09 1)">cluster</text><text class="cls-15" transform="translate(272.74 113.29) scale(1.09 1)">pooling</text><polyline class="cls-9" points="270.12 128.13 270.12 132.94 359.08 132.94 359.08 128.66"/><line class="cls-9" x1="315.9" y1="132.94" x2="315.9" y2="136.49"/><polygon class="cls-10" points="314.66 136.12 315.9 138.28 317.15 136.12 314.66 136.12"/><text class="cls-15" transform="translate(360.31 133.04) scale(1.09 1)">cluster</text><text class="cls-15" transform="translate(270.77 132.5) scale(1.09 1)">cluster</text><text class="cls-15" transform="translate(317.4 137.84) scale(1.09 1)">pooling</text><text class="cls-16" transform="translate(237.65 28.89) scale(0.84 1)">--cluster-iter 3</text><line class="cls-9" x1="315.52" y1="147.36" x2="315.52" y2="159.47"/><polygon class="cls-10" points="314.27 159.11 315.52 161.27 316.76 159.11 314.27 159.11"/><polyline class="cls-9" points="380.84 73.48 380.84 71.92 247.28 71.92 247.28 73.48"/><polygon class="cls-10" points="382.09 73.12 380.84 75.28 379.59 73.12 382.09 73.12"/><polygon class="cls-10" points="246.03 73.12 247.28 75.28 248.52 73.12 246.03 73.12"/><line class="cls-9" x1="293.01" y1="71.61" x2="293.01" y2="73.18"/><polygon class="cls-10" points="291.77 72.81 293.01 74.97 294.26 72.81 291.77 72.81"/><line class="cls-9" x1="337.09" y1="71.61" x2="337.09" y2="73.79"/><polygon class="cls-10" points="335.85 73.42 337.09 75.58 338.34 73.42 335.85 73.42"/><line class="cls-9" x1="312.57" y1="67.34" x2="312.57" y2="72.22"/><text class="cls-15" transform="translate(311.64 65.66) scale(1.09 1)">split into chunks</text><text class="cls-17" transform="translate(238.03 92.25) scale(1.09 1)">chunk_0</text><text class="cls-17" transform="translate(258.66 122.3) scale(1.09 1)">chunk_0</text><text class="cls-17" transform="translate(302.99 144.6) scale(1.09 1)">chunk_0</text><text class="cls-17" transform="translate(281.52 92.25) scale(1.09 1)">chunk_1</text><text class="cls-17" transform="translate(326.6 92.25) scale(1.09 1)">chunk_2</text><text class="cls-17" transform="translate(371.08 92.25) scale(1.09 1)">chunk_3</text><text class="cls-17" transform="translate(347.48 122.3) scale(1.09 1)">chunk_1</text><text class="cls-15" transform="translate(317.64 155.21) scale(1.09 1)">cluster</text><g class="cls-5"><rect class="cls-18" x="19.5" y="29.17" width="154.94" height="38.55" rx="8.21"/></g><text class="cls-14" transform="translate(75.49 50.83) scale(1.09 1)">Original Data</text><text class="cls-16" transform="translate(23.89 26.89) scale(0.84 1)">--cluster-iter 1</text><g class="cls-5"><rect class="cls-6" x="230.32" y="163.24" width="174.07" height="6.97" rx="3.26"/><rect class="cls-19" x="230.32" y="163.24" width="174.07" height="6.97" rx="3.26"/></g><text class="cls-20" transform="translate(279.51 169.66) scale(0.88 1)">Clustered Sequences</text><text class="cls-16" transform="translate(141.5 26.89) scale(0.84 1)">1 Layer</text><text class="cls-16" transform="translate(360.82 28.89) scale(0.84 1)">3 Layers</text></g></svg>